<?xml version="1.0" encoding="utf-8"?>
<!-- Generator: Adobe Illustrator 24.1.3, SVG Export Plug-In . SVG Version: 6.00 Build 0)  -->
<svg version="1.1" id="Layer_1" xmlns="http://www.w3.org/2000/svg" xmlns:xlink="http://www.w3.org/1999/xlink" x="0px" y="0px"
	 viewBox="0 0 97 96" style="enable-background:new 0 0 97 96;" xml:space="preserve">
<style type="text/css">
	.st0{fill:#a43f49;}
</style>
<path class="st0" d="M68,0H29c-4.1,0-7.4,3.3-7.4,7.4v81.2c0,4.1,3.3,7.4,7.4,7.4H68c4.1,0,7.4-3.3,7.4-7.4V7.4
	C75.5,3.3,72.1,0,68,0z M24.4,14.8h48.3v66.3H24.4V14.8z M29,2.8H68c2.5,0,4.6,2.1,4.6,4.6V12H24.4V7.4C24.4,4.9,26.4,2.8,29,2.8z
	 M68,93.2H29c-2.5,0-4.6-2.1-4.6-4.6V84h48.3v4.6C72.6,91.1,70.6,93.2,68,93.2z"/>
<path class="st0" d="M45.5,8.8h6c0.8,0,1.4-0.6,1.4-1.4c0-0.8-0.6-1.4-1.4-1.4h-6c-0.8,0-1.4,0.6-1.4,1.4
	C44.1,8.2,44.7,8.8,45.5,8.8z"/>
<path class="st0" d="M41,8.8c0.4,0,0.7-0.2,1-0.4c0.3-0.3,0.4-0.6,0.4-1c0-0.4-0.2-0.7-0.4-1C41.7,6.2,41.4,6,41,6
	c-0.4,0-0.7,0.2-1,0.4c-0.3,0.3-0.4,0.6-0.4,1c0,0.4,0.2,0.7,0.4,1C40.3,8.7,40.6,8.8,41,8.8z"/>
<path class="st0" d="M48.5,85.7c-1.6,0-2.9,1.3-2.9,2.9s1.3,2.9,2.9,2.9c1.6,0,2.9-1.3,2.9-2.9S50.1,85.7,48.5,85.7z M48.5,88.7
	C48.4,88.7,48.4,88.6,48.5,88.7c-0.1-0.1-0.1-0.2,0-0.2C48.6,88.5,48.6,88.5,48.5,88.7C48.6,88.6,48.6,88.7,48.5,88.7z"/>
<path class="st0" d="M68,18H29c-0.8,0-1.4,0.6-1.4,1.4v9c0,0.8,0.6,1.4,1.4,1.4H68c0.8,0,1.4-0.6,1.4-1.4v-9
	C69.4,18.7,68.8,18,68,18z M66.6,27.1H30.4v-6.2h36.3V27.1z"/>
<path class="st0" d="M68,34.6H29c-0.8,0-1.4,0.6-1.4,1.4c0,0.8,0.6,1.4,1.4,1.4H68c0.8,0,1.4-0.6,1.4-1.4
	C69.4,35.2,68.8,34.6,68,34.6z"/>
<path class="st0" d="M63.5,43.4c0.8,0,1.4-0.6,1.4-1.4c0-0.8-0.6-1.4-1.4-1.4H33.5c-0.8,0-1.4,0.6-1.4,1.4c0,0.8,0.6,1.4,1.4,1.4
	H63.5z"/>
<path class="st0" d="M68,49.6H41c-0.8,0-1.4,0.6-1.4,1.4c0,0.8,0.6,1.4,1.4,1.4H68c0.8,0,1.4-0.6,1.4-1.4
	C69.4,50.2,68.8,49.6,68,49.6z"/>
<path class="st0" d="M32,46.6c-2.4,0-4.4,2-4.4,4.4c0,2.4,2,4.4,4.4,4.4c2.4,0,4.4-2,4.4-4.4C36.4,48.6,34.4,46.6,32,46.6z M32,52.6
	c-0.9,0-1.6-0.7-1.6-1.6c0-0.9,0.7-1.6,1.6-1.6c0.9,0,1.6,0.7,1.6,1.6C33.6,51.9,32.8,52.6,32,52.6z"/>
<path class="st0" d="M68,60.1H41c-0.8,0-1.4,0.6-1.4,1.4c0,0.8,0.6,1.4,1.4,1.4H68c0.8,0,1.4-0.6,1.4-1.4
	C69.4,60.7,68.8,60.1,68,60.1z"/>
<path class="st0" d="M32,57.1c-2.4,0-4.4,2-4.4,4.4c0,2.4,2,4.4,4.4,4.4c2.4,0,4.4-2,4.4-4.4C36.4,59.1,34.4,57.1,32,57.1z M32,63.1
	c-0.9,0-1.6-0.7-1.6-1.6c0-0.9,0.7-1.6,1.6-1.6c0.9,0,1.6,0.7,1.6,1.6C33.6,62.4,32.8,63.1,32,63.1z"/>
<path class="st0" d="M68,70.6H41c-0.8,0-1.4,0.6-1.4,1.4c0,0.8,0.6,1.4,1.4,1.4H68c0.8,0,1.4-0.6,1.4-1.4
	C69.4,71.3,68.8,70.6,68,70.6z"/>
<path class="st0" d="M32,67.6c-2.4,0-4.4,2-4.4,4.4c0,2.4,2,4.4,4.4,4.4c2.4,0,4.4-2,4.4-4.4C36.4,69.6,34.4,67.6,32,67.6z M32,73.6
	c-0.9,0-1.6-0.7-1.6-1.6c0-0.9,0.7-1.6,1.6-1.6c0.9,0,1.6,0.7,1.6,1.6C33.6,72.9,32.8,73.6,32,73.6z"/>
</svg>
