<?xml version="1.0" encoding="utf-8"?>
<!-- Generator: Adobe Illustrator 24.1.3, SVG Export Plug-In . SVG Version: 6.00 Build 0)  -->
<svg version="1.1" id="Layer_1" xmlns="http://www.w3.org/2000/svg" xmlns:xlink="http://www.w3.org/1999/xlink" x="0px" y="0px"
	 viewBox="0 0 96 96" style="enable-background:new 0 0 96 96;" xml:space="preserve">
<style type="text/css">
	.st0{fill:#ffffff;}
</style>
<path class="st0" d="M89.8,12.4V0H71.2v12.4h-3.8l-8.5-12l-8.5,12H0v74.3h49.5c0,5.1,4.2,9.3,9.3,9.3s9.3-4.2,9.3-9.3h3.1V96h18.6
	v-9.3H96V12.4H89.8z M49.5,52.6H28l9.9-12.4h7.8l3.9,5.2V52.6z M49.5,40.3l-2.3-3.1H36.4L24,52.6H12.4v3.1h37.2v3.1H9.3V34.1h40.3
	V40.3z M49.5,31H6.2v31h43.4v21.7H3.1V27.9h46.5V31z M49.5,24.8H3.1v-9.3h46.5V24.8z M58.8,5.8l4.7,6.6h-9.5L58.8,5.8z M52.6,15.5
	h4.6v58.8h-4.6V15.5z M65,86.7c0,3.4-2.8,6.2-6.2,6.2c-3.4,0-6.2-2.8-6.2-6.2v-3.1H65V86.7z M65,80.5H52.6v-3.1H65V80.5z M65,74.3
	h-4.6V15.5H65V74.3z M71.2,83.6h-3.1V61.9h3.1V83.6z M71.2,58.8h-3.1v-3.1h3.1V58.8z M71.2,52.6h-3.1V34.1h3.1V52.6z M71.2,31h-3.1
	v-3.1h3.1V31z M71.2,24.8h-3.1v-9.3h3.1V24.8z M86.7,9.3h-6.2v3.1h6.2v6.2h-6.2v3.1h6.2v6.2h-6.2V31h6.2v6.2h-6.2v3.1h6.2v6.2h-6.2
	v3.1h6.2v6.2h-6.2v3.1h6.2V65h-6.2v3.1h6.2v6.2h-6.2v3.1h6.2v6.2h-6.2v3.1h6.2v6.2H74.3V3.1h12.4V9.3z M92.9,83.6h-3.1V15.5h3.1
	V83.6z"/>
<path class="st0" d="M9.3,18.6H6.2v3.1h3.1V18.6z"/>
<path class="st0" d="M15.5,18.6h-3.1v3.1h3.1V18.6z"/>
<path class="st0" d="M21.7,18.6h-3.1v3.1h3.1V18.6z"/>
<path class="st0" d="M27.9,65H6.2v15.5h21.7V65z M24.8,77.4H9.3v-9.3h15.5V77.4z"/>
<path class="st0" d="M46.5,65H31v3.1h15.5V65z"/>
<path class="st0" d="M46.5,71.2H31v3.1h15.5V71.2z"/>
<path class="st0" d="M46.5,77.4H31v3.1h15.5V77.4z"/>
</svg>
